<svg class="Svg1" width="834" height="529" viewBox="0 0 834 529" fill="#D7BDE2" xmlns="http://www.w3.org/2000/svg">
<g clip-path="url(#clip0_0_1)">
<rect width="833.198" height="528.091" fill="#FFF"/>
<path d="M577.852 225.217C578.473 226.404 579.346 227.439 580.411 228.252C581.475 229.064 582.705 229.633 584.013 229.918C585.321 230.204 586.676 230.199 587.982 229.905C589.288 229.61 590.514 229.032 591.573 228.213L618.831 245.997L618.748 229.084L592.876 214.789C591.381 213.102 589.319 212.021 587.081 211.752C584.843 211.483 582.584 212.045 580.732 213.33C578.88 214.616 577.564 216.536 577.033 218.727C576.503 220.917 576.794 223.227 577.852 225.217L577.852 225.217Z" fill="#FFB6B6"/>
<path d="M714.639 514.364H702.945L697.381 469.257L714.641 469.258L714.639 514.364Z" fill="#FFB6B6"/>
<path d="M717.621 525.7L679.914 525.699V525.222C679.914 521.329 681.461 517.596 684.213 514.844C686.965 512.092 690.698 510.545 694.591 510.545H694.592L717.622 510.546L717.621 525.7Z" fill="#2F2E41"/>
<path d="M656.783 514.364H645.089L639.526 469.257L656.785 469.258L656.783 514.364Z" fill="#FFB6B6"/>
<path d="M659.766 525.7L622.058 525.699V525.222C622.059 521.329 623.605 517.596 626.357 514.844C629.11 512.092 632.843 510.545 636.735 510.545H636.736L659.766 510.546L659.766 525.7Z" fill="#2F2E41"/>
<path d="M643.285 284.19L631.632 400.468L637.459 500.836H659.986L664.54 406.425L682.256 354.799L692.568 434.356V499.132L718.197 500.318L726.702 341.718C726.702 341.718 729.591 297.358 723.826 291.922C718.061 286.487 643.285 284.19 643.285 284.19Z" fill="#2F2E41"/>
<path d="M742.641 179.268L719.09 170.402L714.945 161.997L685.336 162.427L678.628 169.167L655.572 176.719L640.913 289.03C640.913 289.03 686.036 321.279 726.09 298.997L742.641 179.268Z" fill="#3F3D56"/>
<path d="M598.495 236.073L637.248 258.856L669.539 215.663V188.571C669.542 186.067 668.801 183.618 667.412 181.535C666.131 179.61 664.348 178.071 662.257 177.085C660.165 176.099 657.844 175.702 655.544 175.939C653.244 176.175 651.052 177.034 649.204 178.425C647.357 179.816 645.924 181.684 645.06 183.829L628.291 225.496L604.505 218.468L598.495 236.073Z" fill="#3F3D56"/>
<path d="M711.108 296.833C711.343 295.515 711.865 294.265 712.637 293.171C713.408 292.076 714.41 291.164 715.572 290.499C716.733 289.833 718.027 289.431 719.361 289.32C720.696 289.208 722.038 289.391 723.294 289.854L743.95 264.703L748.952 280.859L728.57 302.266C727.651 304.325 726.01 305.975 723.956 306.904C721.902 307.833 719.578 307.976 717.426 307.306C715.273 306.637 713.441 305.201 712.277 303.27C711.112 301.34 710.696 299.05 711.108 296.833L711.108 296.833Z" fill="#FFB6B6"/>
<path d="M741.917 292.873L728.864 279.819L750.421 241.193L719.156 206.15L720.961 192.012C721.376 188.757 722.68 185.68 724.729 183.117V183.117C726.511 180.889 728.8 179.119 731.406 177.957C734.011 176.794 736.857 176.273 739.706 176.436C742.554 176.598 745.322 177.441 747.779 178.893C750.235 180.344 752.308 182.363 753.824 184.78L778.269 239.135L778.147 239.316L741.917 292.873Z" fill="#3F3D56"/>
<path d="M721.821 132.819C720.917 139.411 717.433 145.375 712.135 149.401C706.836 153.426 700.156 155.183 693.563 154.285C686.969 153.388 681.002 149.91 676.972 144.615C672.942 139.32 671.179 132.642 672.07 126.047L672.118 125.691C673.159 119.186 676.714 113.35 682.019 109.442C687.323 105.535 693.951 103.869 700.472 104.804C706.993 105.739 712.886 109.201 716.878 114.441C720.871 119.682 722.643 126.282 721.813 132.818L721.821 132.819Z" fill="#FFB6B6"/>
<path d="M715.431 145.749C716.72 143.13 718.045 140.319 717.682 137.422C717.32 134.526 714.48 131.758 711.691 132.618C710.023 133.133 708.762 134.78 707.019 134.864C704.62 134.98 703.244 132.235 702.498 129.952L699.457 120.656C696.536 122.932 693.15 124.535 689.539 125.351C685.927 126.167 682.181 126.176 678.566 125.377C675.742 124.731 672.89 123.472 671.233 121.096C669.577 118.72 669.587 115.035 671.859 113.238C672.973 112.357 674.455 112.022 675.52 111.082C676.18 110.499 676.635 109.719 676.818 108.857C677 107.995 676.9 107.097 676.533 106.297C676.165 105.496 675.55 104.835 674.777 104.411C674.005 103.987 673.117 103.823 672.244 103.944L679.901 102.987L677.62 98.8605C678.487 99.4507 679.468 99.8533 680.499 100.043C681.531 100.232 682.591 100.204 683.611 99.9597C685.671 99.5888 687.612 98.7406 689.627 98.1749C694.512 96.9275 699.67 97.3087 704.319 99.2607C708.967 101.213 712.851 104.629 715.381 108.99C717.265 108.36 719.296 108.319 721.205 108.87C723.113 109.421 724.809 110.539 726.068 112.075C728.118 114.677 728.675 118.149 728.755 121.46C728.904 127.988 727.48 134.457 724.605 140.32C723.78 142.182 722.595 143.863 721.118 145.266C720.374 145.961 719.488 146.486 718.52 146.802C717.552 147.118 716.527 147.219 715.516 147.098" fill="#2F2E41"/>
</g>
<defs>
<clipPath id="clip0_0_1">
<rect width="833.198" height="528.091" fill="#D7BDE2"/>
</clipPath>
</defs>
</svg>
