<svg width="981" height="752" viewBox="0 0 981 752" fill="none" xmlns="http://www.w3.org/2000/svg">
<rect width="981" height="752" fill="#E5E5E5"/>
<g clip-path="url(#clip0_0_1)">
<rect width="980.494" height="751.895" fill="white"/>
<path d="M152 733.294C149.154 759.17 -0.226103 756.998 0.000256996 733.292C2.84564 707.418 152.226 709.59 152 733.294Z" fill="#E6E6E6"/>
<path d="M103.754 668.156L109.81 681.276L120.911 680.267L127.976 657.054L116.874 650.999L103.754 668.156Z" fill="#FFB8B8"/>
<path d="M65.642 698.373L65.403 707.516L82.56 708.525V697.424L65.642 698.373Z" fill="#FFB8B8"/>
<path d="M71.458 531.908L75.495 612.647L65.403 700.451L95.68 704.488L114.856 593.472L120.911 517.778L71.458 531.908Z" fill="#2F2E41"/>
<path d="M24.0239 502.64C24.0239 502.64 11.913 582.37 37.1441 608.61C62.3752 634.851 96.6895 681.276 96.6895 681.276L120.911 650.999L59.3475 585.398L71.4584 540.991L120.911 517.778L112.837 462.27L40.1719 461.261L24.0239 502.64Z" fill="#2F2E41"/>
<path d="M83.5693 317.948C95.8319 317.948 105.773 308.007 105.773 295.744C105.773 283.482 95.8319 273.541 83.5693 273.541C71.3068 273.541 61.366 283.482 61.366 295.744C61.366 308.007 71.3068 317.948 83.5693 317.948Z" fill="#FFB8B8"/>
<path d="M64.3937 300.791C64.3937 300.791 63.3844 332.077 58.3382 336.114C53.292 340.151 76.5046 357.308 76.5046 357.308L91.6433 333.087V310.883L64.3937 300.791Z" fill="#FFB8B8"/>
<path d="M74.486 343.179L62.233 324.677L55.31 334.096L45.218 362.355L53.292 472.362L100.726 473.371L106.782 347.216L91.643 329.05L74.486 343.179Z" fill="#D0CDE1"/>
<path d="M125.958 350.244L134.032 349.234C134.032 349.234 136.05 350.244 137.059 357.308C138.069 364.373 150.179 426.946 150.179 426.946L134.032 503.649L115.865 479.427L126.967 437.039L115.865 394.65L125.958 350.244Z" fill="#2F2E41"/>
<path d="M23.015 349.234H16.959L1.82098 430.983L15.95 494.566L30.079 471.353L26.042 446.122L28.061 423.919L35.126 410.798L23.015 349.234Z" fill="#2F2E41"/>
<path d="M112.837 677.239C112.837 677.239 106.782 675.22 106.782 679.257C106.782 683.294 110.819 695.405 110.819 695.405C110.819 695.405 104.764 732.747 113.847 730.729C122.93 728.71 129.995 711.553 131.004 706.507C132.013 701.461 137.059 675.22 137.059 675.22C137.059 675.22 145.133 656.045 140.087 655.035C135.041 654.026 120.911 649.989 120.911 649.989C120.911 649.989 128.985 675.22 112.837 677.239Z" fill="#2F2E41"/>
<path d="M83.5693 708.525C83.5693 708.525 67.4214 698.433 64.3937 706.507C62.3857 712.396 61.0318 718.488 60.3567 724.673C60.3567 724.673 56.3197 737.793 72.4676 735.775C88.6156 733.757 86.5971 733.756 87.6063 727.701C88.6156 721.645 83.5693 708.525 83.5693 708.525Z" fill="#2F2E41"/>
<path d="M70.4492 295.745L74.4862 294.735C74.4862 294.735 77.5139 277.578 84.5786 279.597C91.6433 281.615 109.81 283.634 109.81 275.56C109.81 267.486 92.6526 260.421 82.5601 261.43C72.4677 262.439 55.3105 265.467 56.3198 280.606C57.329 295.744 63.8414 310.471 63.8414 310.471L64.3674 301.496L70.4492 295.745Z" fill="#2F2E41"/>
<path d="M91.643 355.29L74.486 343.179L91.643 329.05L97.6 336.197L91.643 355.29Z" fill="#D0CDE1"/>
<path d="M59.347 354.281L74.486 343.179L62.375 325.013L55.31 334.096L59.347 354.281Z" fill="#D0CDE1"/>
<path d="M133.022 349.234L100.727 336.114L93.1572 330.563L70.4492 430.983L55.3105 385.567L59.8521 327.536L17.9685 349.234L32.0979 417.863L34.1164 444.103L28.0609 465.298C28.0609 465.298 6.86681 480.436 13.9315 496.584C20.9962 512.732 29.0702 513.741 29.0702 513.741C29.0702 513.741 63.3845 481.445 65.403 473.371C67.4215 465.298 70.4492 451.168 70.4492 451.168C70.4492 451.168 87.6064 515.76 107.791 514.751C127.976 513.741 127.976 492.547 127.976 492.547L122.93 470.344L114.856 447.131L118.893 408.78L133.022 349.234Z" fill="#2F2E41"/>
<g clip-path="url(#clip1_0_1)">
<path d="M856.815 219.553C772.94 90.4894 595.758 38.1356 421.505 94.5219C329.383 124.332 240.56 184.06 196.542 299.713C117.854 506.456 283.069 572.484 391.101 593.528C443.34 603.704 492.54 620.797 537.499 644.069C618.385 685.938 761.559 723.039 869.521 548.635C947.773 422.228 912.684 305.522 856.815 219.553Z" fill="#F2F2F2"/>
<path d="M370.536 245.088C370.301 243.037 369.827 241.028 369.124 239.112C369.034 238.749 368.878 238.412 368.663 238.12C368.449 237.828 368.183 237.589 367.88 237.418C367.476 237.302 367.053 237.296 366.646 237.403L360.311 238.475C359.78 238.501 359.273 238.72 358.865 239.096C358.04 240.055 358.853 241.601 358.827 242.924C358.799 244.413 357.603 245.622 356.306 246.021C354.982 246.317 353.616 246.298 352.299 245.966L343.44 244.444C346.049 243.523 348.371 241.809 350.142 239.499C351.307 237.971 351.928 235.12 350.243 234.397C349.742 234.245 349.22 234.199 348.704 234.26C344.69 234.295 341.532 230.589 337.774 229.028C335.369 228.094 332.759 228.024 330.316 228.83C327.873 229.635 325.723 231.274 324.173 233.512L328.893 233.763C329.337 233.736 329.777 233.866 330.15 234.134C331.184 235.074 329.898 236.879 330.044 238.35C330.233 240.262 332.529 240.67 334.259 240.863C335.989 241.056 338.184 242.611 337.352 244.3C328.655 247.612 319.805 237.824 310.672 239.029C308.36 239.334 306.178 240.338 303.921 240.97C290.134 244.827 275.881 234.535 261.797 236.715C258.666 237.305 255.589 238.203 252.602 239.397C250.685 240.093 248.685 240.845 247.293 242.459C245.9 244.073 245.37 246.833 246.689 248.521C243.052 248.852 239.391 248.467 235.876 247.385C236.827 247.969 237.618 248.825 238.166 249.864C238.714 250.903 238.999 252.086 238.991 253.288C233.312 254.312 227.785 256.176 222.556 258.83C223.532 260.624 224.671 262.303 225.957 263.84L218.769 268.947C221.197 269.624 222.453 273.286 221.041 275.573C223.559 274.334 225.12 271.13 227.812 270.48C229.577 270.054 231.372 270.852 233.045 271.602C234.719 272.352 236.558 273.079 238.291 272.516C240.023 271.953 241.301 269.469 240.2 267.886C247.605 265.497 255.258 264.175 262.97 263.953C263.565 263.87 264.168 263.997 264.694 264.315C265.698 265.085 265.434 266.748 265.38 268.098C265.326 269.447 266.277 271.221 267.368 270.613C266.085 271.844 267.182 274.16 268.413 275.454C269.644 276.748 271.128 278.534 270.374 280.218C270.178 280.657 269.844 281.008 269.655 281.452C269.096 282.76 269.983 284.286 271.03 285.155C272.076 286.024 273.358 286.631 274.085 287.835C274.812 289.038 274.482 291.144 273.182 291.312L269.487 286.125C268.225 287.573 267.36 289.386 266.991 291.355C270.909 294.897 271.498 302.105 268.219 306.366C266.542 308.544 264.159 309.867 262.078 311.565C259.998 313.264 258.073 315.682 258.078 318.542C258.087 323.482 257.722 328.072 259.396 332.652C262.484 341.098 266.048 349.32 270.068 357.271C271.123 359.359 272.488 361.647 274.626 362.007C271.924 354.731 269.491 347.342 267.327 339.839C268.736 339.846 270.365 339.969 271.191 341.232C271.875 342.277 271.728 343.698 271.94 344.967C272.21 346.196 272.661 347.367 273.274 348.435L286.181 373.858C287.251 375.966 288.478 378.228 290.523 379.081C291.831 379.627 293.343 379.524 294.547 380.31C295.49 380.926 296.125 382.019 297.087 382.599C299.806 384.239 303.586 381.093 306.127 383.052C306.854 383.612 307.316 384.501 307.985 385.142C310.332 387.389 314.182 385.886 316.891 387.562C318.636 388.643 319.541 390.804 320.473 392.762C322.805 397.666 326.579 402.472 331.579 402.862C333.149 402.985 334.753 402.656 336.288 403.042C337.823 403.428 339.334 404.909 339.087 406.629C338.665 409.576 339.982 412.804 339.628 415.762C338.984 421.152 332.071 423.52 331.477 428.916C331.347 430.098 331.551 431.317 331.296 432.474C330.985 433.891 330.022 435.045 329.68 436.454C329.032 439.124 330.762 441.781 332.662 443.577C334.562 445.373 336.829 446.922 337.868 449.437C338.966 452.094 338.427 455.193 338.784 458.088C339.563 464.409 344.5 469.094 349.581 472.116C351.129 473.036 352.791 473.927 353.793 475.524C355.101 477.608 354.97 480.356 355.407 482.846C356.476 488.945 361.119 493.971 361.251 500.181C361.345 504.596 359.126 508.601 357.8 512.766C356.557 516.757 356.108 520.997 356.482 525.198C356.856 529.398 358.045 533.46 359.968 537.106C360.959 538.958 362.145 540.703 362.847 542.711C364.099 546.293 363.692 550.365 364.847 553.987C366.373 558.775 370.566 562.73 370.164 567.788C372.068 572.159 376.272 574.307 380.498 575.608L388.074 577.94C389.525 578.387 391.04 578.837 392.517 578.513C393.994 578.19 395.404 576.834 395.366 575.169C391.651 574.243 387.817 573.258 384.754 570.754C381.692 568.251 379.594 563.793 380.756 559.783C381.295 557.923 382.441 555.776 381.351 554.239C380.728 553.36 379.587 553.13 378.883 552.327C377.785 551.075 378.162 548.972 378.951 547.462C379.741 545.952 380.881 544.603 381.199 542.895C381.36 541.94 381.253 540.953 380.892 540.067C380.531 539.181 379.933 538.438 379.18 537.938C380.584 537.351 381.862 536.445 382.929 535.277C383.915 534.032 384.371 532.112 383.595 530.697C385.899 531.02 388.618 531.178 390.13 529.23C391.338 527.674 391.255 525.347 390.778 523.366C390.301 521.385 389.494 519.46 389.469 517.41C394.783 517.689 400.108 517.489 405.393 516.813C404.629 513.967 402.892 511.562 400.551 510.109C402.945 509.661 405.125 506.492 405.881 503.942C406.637 501.391 406.445 498.613 405.977 495.979C405.798 495.301 405.773 494.584 405.906 493.893C406.175 492.943 407.019 492.363 407.799 491.868L419.679 484.323C420.388 483.931 421.031 483.406 421.579 482.773C422.824 481.156 422.639 478.715 422.002 476.713C421.365 474.71 420.344 472.827 420.098 470.721C419.364 464.423 425.461 459.905 427.518 453.976C428.325 451.65 428.49 449.121 428.646 446.635C428.814 443.965 428.827 440.864 426.973 439.143C425.196 437.494 422.419 437.862 420.559 436.328C418.854 434.921 418.266 432.19 416.404 431.054C414.712 430.022 412.591 430.678 410.71 430.193C407.398 429.339 405.313 425.117 401.931 424.726C400.022 424.506 397.862 425.538 396.298 424.308C394.919 423.225 394.864 421.049 394.602 419.201C394.142 416.331 392.898 413.685 391.036 411.62C389.175 409.555 386.786 408.17 384.192 407.653C382.224 407.304 380.082 407.436 378.408 406.24C376.712 405.03 375.935 402.762 374.603 401.086C372.457 398.383 369.077 397.423 365.911 396.599L353.032 393.251C350.746 392.657 347.799 392.342 346.572 394.557C346.209 395.4 345.952 396.294 345.808 397.214C345.348 398.879 344.423 400.34 343.165 401.387C341.908 402.433 340.382 403.012 338.808 403.04C337.729 401.004 335.98 399.508 333.927 398.864C332.621 398.461 331.223 398.417 329.978 397.824C329.299 397.458 328.696 396.943 328.204 396.31C327.712 395.677 327.342 394.94 327.116 394.143C326.891 393.346 326.815 392.507 326.893 391.677C326.971 390.847 327.202 390.043 327.571 389.315C328.313 387.853 328.6 386.161 328.387 384.501C328.173 382.841 327.472 381.305 326.391 380.129C324.2 377.955 321.032 377.43 318.095 377.647C317.326 375.791 318.612 373.698 319.998 372.349C321.384 371 323.067 369.674 323.369 367.66C323.843 364.492 320.188 362.086 317.412 363.031C314.637 363.975 312.865 366.956 311.694 369.895C311.022 371.581 310.451 373.356 309.391 374.778C308.332 376.2 306.625 377.218 305.01 376.762C302.725 376.116 301.842 373.113 301.337 370.565C300.658 367.147 299.975 363.681 300.118 360.185C300.26 356.689 301.326 353.099 303.657 350.732C307.456 346.876 313.284 347.254 318.411 347.869C317.2 346.36 317.499 343.816 318.795 342.396C319.48 341.724 320.302 341.246 321.191 341.005C322.079 340.763 323.008 340.765 323.896 341.01C325.441 341.366 326.833 342.286 327.847 343.623C329.304 345.587 329.719 348.239 330.82 350.469C331.921 352.698 334.398 354.6 336.424 353.404C338.175 352.371 338.453 349.686 338.017 347.546C337.582 345.405 336.656 343.323 336.814 341.136C337.115 336.962 341.028 334.449 344.481 332.73C347.933 331.012 351.887 328.7 352.434 324.557C352.453 323.745 352.591 322.943 352.844 322.181C353.226 321.508 353.759 320.955 354.39 320.573C364.466 313.21 374.711 305.756 386.228 301.732C386.827 301.523 386.898 301.755 387.508 301.591C388.363 301.045 387.797 299.534 386.977 298.925C386.158 298.317 385.063 297.85 384.855 296.783C384.702 295.998 385.12 295.228 385.228 294.435C385.495 292.485 383.386 290.685 381.748 291.465C380.823 290.11 382.654 288.535 384.134 288.085C388.579 286.732 393.142 285.908 397.745 285.626C398.276 285.533 398.82 285.635 399.293 285.918C400.067 286.51 399.968 287.868 399.42 288.713C398.872 289.559 398.02 290.089 397.337 290.804C396.591 291.608 396.059 292.623 395.799 293.738C395.539 294.853 395.561 296.026 395.862 297.128C398.265 298.48 400.878 299.871 403.539 299.395C406.201 298.919 408.563 295.612 407.312 292.971C406.147 290.512 402.648 289.957 402.046 287.262C401.341 284.106 405.381 281.299 404.471 278.209C404.072 276.855 402.852 276.058 401.916 275.08C400.81 273.882 400.058 272.342 399.758 270.662C399.459 268.982 399.625 267.242 400.236 265.668C398.711 265.965 397.144 265.853 395.666 265.342C394.188 264.83 392.843 263.935 391.743 262.729C389.711 260.462 388.091 256.886 385.206 256.987C382.559 257.081 380.279 260.496 377.803 259.454C377.194 259.198 376.552 258.676 375.962 258.981C375.769 259.12 375.606 259.306 375.488 259.524C375.369 259.743 375.296 259.988 375.275 260.242C374.646 263.568 375.728 267.357 374.089 270.231C372.306 273.358 368.18 273.791 366.017 276.611C364.844 278.142 364.389 280.205 363.31 281.819C362.231 283.433 359.941 284.459 358.646 283.052C359.283 281.606 359.456 279.963 359.139 278.393C358.822 276.823 358.032 275.418 356.9 274.409C355.698 273.542 354.402 272.845 353.043 272.334C351.524 271.623 350.079 270.733 348.734 269.679C348.06 269.229 347.512 268.581 347.152 267.807C346.867 266.838 346.905 265.788 347.26 264.847C347.916 262.765 349.075 260.922 350.61 259.515C352.145 258.108 353.998 257.192 355.97 256.864C357.694 256.605 359.7 256.696 360.841 255.244C361.445 254.475 361.761 253.313 362.638 253.001C363.198 252.877 363.78 252.956 364.296 253.227L370.731 255.732C371.449 256.09 372.24 256.235 373.024 256.151C373.412 256.093 373.767 255.875 374.016 255.54C374.266 255.205 374.391 254.778 374.367 254.345C374.162 253.163 372.518 252.596 372.667 251.404C372.751 251.018 372.939 250.669 373.206 250.403C375.528 247.67 378.368 245.538 381.522 244.161C384.677 242.783 388.068 242.194 391.452 242.435C392.264 243.91 390.98 245.657 389.911 246.916C388.842 248.175 387.983 250.425 389.276 251.395C389.806 251.694 390.395 251.84 390.989 251.821C392.574 252.058 394.113 252.575 395.55 253.351C397.773 254.421 399.954 255.592 402.092 256.863C401.904 255.304 401.723 253.662 402.258 252.204C402.792 250.746 404.311 249.603 405.637 250.171C406.916 250.718 407.572 252.59 408.934 252.761C410.751 252.99 411.467 250.022 410.708 248.182C409.949 246.342 408.447 244.802 408.322 242.785C408.237 241.424 408.705 239.736 407.722 238.912C407.372 238.664 406.975 238.51 406.562 238.462L382.015 233.467C380.557 233.17 378.451 233.397 378.386 235.035C378.35 235.949 379.088 236.853 378.761 237.693C378.412 238.59 377.266 238.508 376.431 238.826C375.135 239.318 374.485 241.019 374.609 242.528C374.837 244.027 375.362 245.452 376.147 246.7C374.55 245.962 372.132 245.826 370.536 245.088Z" fill="#3F3D56"/>
<path d="M350.949 222.045C349.401 221.479 347.733 221.452 346.171 221.97C344.609 222.487 343.229 223.523 342.217 224.937C341.813 225.525 341.474 226.337 341.812 226.974C342.297 227.887 343.533 227.527 344.445 227.2C345.784 226.671 347.242 226.632 348.603 227.09C349.459 227.415 350.224 227.989 351.084 228.302C351.502 228.495 351.96 228.559 352.409 228.487C352.858 228.414 353.28 228.208 353.631 227.89C354.221 227.225 354.258 226.191 354.259 225.259C354.3 224.947 354.277 224.629 354.193 224.328C354.109 224.028 353.965 223.751 353.771 223.52C353.427 223.299 353.041 223.173 352.644 223.151C351.754 222.969 350.95 222.449 350.37 221.682" fill="#3F3D56"/>
<path d="M359.8 219.32C359.454 219.299 359.109 219.377 358.797 219.547C358.486 219.716 358.22 219.971 358.023 220.288C357.827 220.604 357.708 220.971 357.676 221.353C357.645 221.735 357.704 222.119 357.846 222.469C358.91 222.79 360.021 222.87 361.114 222.705C361.659 222.611 362.167 222.342 362.573 221.929C362.979 221.517 363.267 220.981 363.398 220.389C362.112 220.648 360.784 220.368 359.675 219.603" fill="#3F3D56"/>
<path d="M389.498 214.769C386.602 215.45 383.79 216.506 381.118 217.917C382.377 218.452 383.448 219.42 384.172 220.679C384.896 221.938 385.235 223.421 385.139 224.909C385.026 225.481 385.039 226.074 385.177 226.638C385.485 227.463 386.377 227.773 387.161 227.985C388.57 228.459 390.041 228.666 391.512 228.599C392.248 228.556 392.962 228.311 393.591 227.886C394.22 227.462 394.743 226.87 395.113 226.165C395.326 225.496 395.576 224.843 395.862 224.208C397.741 221.043 403.324 224.87 405.342 221.811C406.053 220.733 405.988 219.111 406.914 218.257C407.394 217.885 407.949 217.651 408.531 217.575C412.588 216.684 416.687 216.038 420.809 215.641C422.761 215.453 425.307 214.678 425.323 212.511C417.968 210.913 410.341 212.048 403.629 215.738C401.21 217.077 398.012 219.895 395.682 218.119C394.81 217.454 394.853 215.664 393.653 214.916C392.425 214.152 390.801 214.463 389.498 214.769Z" fill="#3F3D56"/>
<path d="M413.553 219.743L417.006 220.477C416.37 220.446 415.736 220.565 415.145 220.826C414.554 221.087 414.021 221.485 413.58 221.993C413.14 222.5 412.802 223.105 412.59 223.769C412.377 224.432 412.296 225.137 412.349 225.838C415.583 227.033 419.108 225.871 422.514 226.029C425.92 226.188 429.883 228.878 429.302 232.593C429.126 233.716 428.539 234.839 428.844 235.927C429.058 236.69 429.667 237.232 430.01 237.935C430.726 239.399 430.154 241.252 429.25 242.583C428.346 243.914 427.131 244.977 426.338 246.391C424.364 249.91 425.485 254.459 426.661 258.391C427.001 259.876 427.628 261.262 428.5 262.453C430.242 264.5 433.08 264.678 435.622 264.719C437.472 264.749 439.591 264.648 440.761 263.063C442.288 260.994 441.22 257.765 442.226 255.337C443.139 253.131 445.466 252.185 447.574 251.514C451.436 250.284 455.372 249.239 459.023 247.382C463.557 245.076 467.794 241.482 472.778 241.185C474.176 241.102 475.609 241.285 476.955 240.861C478.302 240.437 479.581 239.15 479.479 237.606C479.392 236.287 478.383 235.318 477.594 234.323C476.805 233.329 476.186 231.799 476.911 230.747L489.972 228.049C489.047 225.259 488.325 221.584 490.453 219.768C491.221 219.113 492.248 218.851 492.902 218.059C494.016 216.708 493.456 214.383 492.17 213.234C490.884 212.086 489.145 211.819 487.498 211.668C481.771 211.142 476.011 211.49 470.272 211.838C459.055 212.517 447.837 213.197 436.62 213.877C434.362 214.014 431.755 213.805 429.684 214.657C427.93 215.378 426.684 216.702 424.678 217.167C420.976 218.026 416.903 217.445 413.553 219.743Z" fill="#3F3D56"/>
<path d="M475.409 249.922C475.057 249.861 474.697 249.951 474.404 250.174C474.21 250.411 474.094 250.713 474.076 251.031C473.854 252.437 474.119 253.884 474.82 255.082C475.177 255.67 475.67 256.141 476.247 256.448C476.824 256.754 477.465 256.883 478.103 256.823C479.658 256.604 480.804 255.137 482.233 254.421C484.436 253.319 493.792 251.601 487.32 247.735C485.09 246.402 483.649 247.579 481.891 248.456C479.891 249.588 477.65 250.094 475.409 249.922V249.922Z" fill="#3F3D56"/>
<path d="M532.093 217.56C531.337 217.902 530.705 218.51 530.295 219.291C530.106 219.687 530.062 220.149 530.172 220.58C530.282 221.011 530.538 221.379 530.887 221.607C531.169 221.72 531.468 221.773 531.768 221.762L534.841 221.863C536.146 221.906 537.777 222.214 538.128 223.605C538.388 224.638 537.805 225.965 538.509 226.703C538.81 226.961 539.173 227.118 539.554 227.154C540.566 227.441 541.623 227.479 542.65 227.264C544.885 226.601 543.711 225.092 544.415 223.749C545.492 221.693 545.306 222.937 547.204 221.759C548.606 220.889 550.418 219.311 549.247 217.093C547.213 213.237 535.095 215.904 532.093 217.56Z" fill="#3F3D56"/>
<path d="M592.739 215.622L590.955 215.885C586.931 216.479 582.885 217.078 579.01 218.414C580.688 219.147 582.447 219.625 584.241 219.833C585.229 219.887 586.21 220.041 587.171 220.294C588.883 220.857 590.608 222.312 592.261 221.567C593.287 221.105 593.621 219.924 594.47 219.299C595.057 218.867 597.281 218.167 597.53 217.731C599.54 214.206 594.284 215.394 592.739 215.622Z" fill="#3F3D56"/>
<path d="M600.574 224.589C598.19 226.062 595.979 227.853 593.989 229.921C593.151 230.792 592.295 231.876 592.371 233.145C592.472 234.833 594.097 235.811 595.505 236.471L601.209 239.141C601.901 238.062 601.268 236.574 600.553 235.514C599.838 234.454 598.988 233.228 599.304 231.953C599.664 230.497 601.269 230.001 602.615 229.751C604.807 229.342 610.721 229.375 610.011 225.468C609.173 220.864 602.775 223.228 600.574 224.589Z" fill="#3F3D56"/>
<path d="M599.427 485.124C598.884 486.862 598.832 488.91 599.771 490.428C600.825 492.131 602.935 492.765 604.76 492.334C606.577 491.799 608.197 490.647 609.391 489.041C610.483 487.695 611.381 486.172 612.054 484.524C612.994 481.956 613.657 479.275 614.029 476.535L615.8 466.253C616.196 463.956 616.18 456.911 612.361 459.206C611.317 459.833 608.902 464.784 607.808 466.188C605.837 468.718 605.577 471.173 604.539 474.239C603.24 478.078 600.628 481.278 599.427 485.124Z" fill="#3F3D56"/>
<path d="M801.154 537.739C799.904 537.2 798.691 536.561 797.525 535.829C796.355 539.385 795.733 543.133 795.685 546.917L804.237 541.565C805.523 540.761 806.981 539.642 806.954 538.008C806.965 537.806 806.927 537.604 806.844 537.424C806.761 537.244 806.635 537.092 806.481 536.984C806.291 536.9 806.084 536.873 805.881 536.907C804.613 537.023 803.457 537.713 802.261 538.193C801.064 538.673 799.666 538.927 798.568 538.215" fill="#3F3D56"/>
<path d="M846.267 540.916C845.328 541.199 844.411 541.563 843.524 542.004C841.562 543.109 840.227 545.206 838.461 546.66C836.771 548.052 834.736 548.816 832.739 549.559C832.152 550.133 832.422 551.29 833.059 551.794C833.745 552.225 834.531 552.421 835.318 552.355C837.393 552.406 839.579 552.428 841.396 551.32C842.42 550.586 843.378 549.745 844.258 548.809C846.382 546.848 848.934 545.555 851.46 544.305C852.379 543.921 853.229 543.359 853.97 542.645C855.558 540.916 855.669 538.248 853.381 537.659C851.531 537.184 848.027 540.286 846.267 540.916Z" fill="#3F3D56"/>
<path d="M866.199 526.518C866.302 525.328 866.159 524.128 865.781 523.009C865.403 521.889 864.8 520.879 864.017 520.055C863.993 522.435 863.928 524.971 862.717 526.94C861.854 528.342 860.502 529.29 859.557 530.626C858.611 531.962 858.192 534.08 859.3 535.252C860.009 535.848 860.872 536.177 861.763 536.19C863.97 536.477 866.524 536.637 868.072 534.874C868.917 533.912 869.328 532.487 870.358 531.779C870.742 531.601 871.085 531.33 871.361 530.985C871.787 530.238 871.111 529.252 870.35 528.982C869.589 528.713 868.75 528.84 867.985 528.584C867.221 528.328 866.519 527.377 866.911 526.607" fill="#3F3D56"/>
<path d="M830.773 439.237C829.615 439.548 828.416 439.626 827.233 439.467C825.268 439.068 823.739 437.431 822.153 436.088C818.382 432.913 813.798 431.142 809.06 431.029C804.75 430.939 800.4 432.231 796.166 431.33C796.443 433.031 797.759 434.307 799.164 435.065C800.568 435.823 802.118 436.205 803.53 436.948C805.79 438.149 807.582 440.212 808.579 442.757C809.033 443.93 809.319 445.207 810.008 446.231C811.415 448.325 814.083 448.785 816.437 448.613C819.506 448.39 822.712 447.414 825.567 448.678C827.751 449.646 829.315 451.76 831.139 453.404C832.963 455.048 835.532 456.268 837.626 455.082C835.45 454.303 833.557 452.776 832.222 450.723C830.887 448.67 830.181 446.199 830.206 443.671C832.26 443.88 838.176 443.799 837.857 439.939C837.587 436.668 832.537 438.884 830.773 439.237Z" fill="#3F3D56"/>
<path d="M803.902 465.849C804.266 463.637 806.261 461.683 805.64 459.543C805.21 458.062 803.658 457.331 802.252 457.295C800.846 457.258 799.465 457.721 798.059 457.765C797.145 457.711 796.227 457.725 795.314 457.808C792.524 458.315 790.804 461.549 788.175 462.699C786.576 463.398 784.78 463.264 783.117 463.748C779.342 464.845 776.954 468.789 774.315 471.969C770.052 477.085 764.497 480.666 758.372 482.251C756.226 482.8 753.919 483.152 752.213 484.693C749.954 486.734 749.397 490.233 748.895 493.411C747.506 502.187 745.384 510.802 742.556 519.144L751.519 520.409C753.223 520.65 754.988 520.885 756.63 520.327C757.823 519.83 758.954 519.164 759.993 518.347C763.985 515.606 768.452 513.823 773.107 513.112C775.454 512.756 777.915 512.691 780.117 513.655C782.32 514.62 784.209 516.808 784.394 519.42C785.347 519.092 786.362 519.057 787.331 519.317C788.3 519.578 789.187 520.125 789.897 520.9C791.301 522.481 792.22 524.51 792.525 526.7C792.761 528.056 792.997 529.68 794.135 530.249C795.063 530.713 796.128 530.214 797.144 530.124C800.59 529.819 803.449 534.262 806.836 533.497C810.469 532.676 811.36 526.661 814.904 525.456C816.939 524.763 819.794 525.605 820.769 523.511C821.628 521.666 819.914 519.537 820.091 517.471C820.308 514.926 823.022 513.847 825.115 512.761C832.327 509.019 835.75 498.284 832.255 490.366C830.184 485.675 826.109 481.983 825.357 476.829C824.778 472.865 826.191 468.241 823.905 465.12C822.742 463.533 820.773 462.656 820.081 460.762C819.646 459.57 819.821 458.217 819.586 456.957C819.352 455.697 818.358 454.38 817.233 454.706C813.968 455.654 812.926 466.808 811.178 469.518C808.52 473.638 803.065 470.924 803.902 465.849Z" fill="#3F3D56"/>
<path d="M743.547 443.451C742.431 443.105 741.213 442.764 740.143 443.259C739.074 443.753 738.45 445.489 739.308 446.35C746.021 446.061 752.775 445.774 759.432 446.782C767.101 447.943 774.69 450.821 782.393 449.974C777.993 448.539 773.52 447.391 768.998 446.537L761.458 444.944C759.435 444.476 757.391 444.127 755.334 443.898C751.033 443.505 747.777 444.762 743.547 443.451Z" fill="#3F3D56"/>
<path d="M750.268 417.597C749.71 417.545 749.02 417.501 748.732 418.031C748.456 418.537 748.772 419.206 748.623 419.774C748.421 420.549 747.503 420.747 746.779 420.642C746.055 420.536 745.272 420.283 744.631 420.669C744.306 420.915 744.062 421.27 743.935 421.683C743.808 422.095 743.805 422.541 743.928 422.955C744.19 423.777 744.614 424.525 745.169 425.143C746.117 426.465 747.197 427.663 748.389 428.716C750.697 430.599 753.823 431.506 755.276 434.24C755.481 434.77 755.796 435.239 756.195 435.609C756.893 436.098 757.803 435.726 758.554 435.346L761.187 434.016C761.661 433.827 762.085 433.509 762.418 433.09C763.019 432.188 762.65 430.905 762.145 429.932C761.64 428.96 760.994 427.954 761.102 426.839C761.295 424.852 763.606 424.092 764.557 422.391C765.514 420.677 764.891 418.468 765.001 416.457C765.13 414.105 766.467 411.045 764.317 409.288C762.489 407.794 760.742 409.174 759.43 410.823C756.663 414.301 755.354 418.066 750.268 417.597Z" fill="#3F3D56"/>
<path d="M766.249 382.452C767.148 384.355 769.022 385.491 770.002 387.344C771.065 389.353 770.944 391.949 772.096 393.896C773.279 395.894 775.659 396.954 776.322 399.227C777.046 401.707 775.403 404.723 776.713 406.89C776.957 407.245 777.265 407.539 777.617 407.755C777.97 407.97 778.359 408.103 778.76 408.144C779.161 408.184 779.566 408.133 779.948 407.992C780.33 407.85 780.682 407.623 780.98 407.324C781.532 406.659 781.828 405.782 781.804 404.88C781.779 403.978 781.438 403.122 780.851 402.494C780.076 401.713 778.962 401.375 778.315 400.462C777.978 399.935 777.753 399.33 777.658 398.693C777.305 396.856 777.362 394.952 777.823 393.145C777.996 392.686 778.04 392.18 777.949 391.693C777.658 390.757 776.511 390.69 775.706 390.256C773.877 389.269 773.921 386.415 774.241 384.193C774.028 385.673 769.263 383.156 768.764 382.318C767.773 380.654 768.312 377.443 768.116 375.603C765.976 376.744 765.15 380.125 766.249 382.452Z" fill="#3F3D56"/>
<path d="M718.241 411.734C717.361 410.645 716.037 409.506 714.857 410.163C713.958 410.664 713.71 412.04 714.063 413.084C714.493 414.097 715.154 414.969 715.982 415.613C718.439 417.854 721.085 419.877 723.229 422.482C727.066 427.144 729.098 433.435 733.27 437.73C734.109 438.726 735.22 439.39 736.432 439.622C737.648 439.747 739.013 438.887 739.152 437.546C739.268 436.441 738.571 435.452 737.89 434.633C736.27 432.684 734.495 430.89 732.965 428.853C732.258 428.07 731.814 427.044 731.706 425.945C731.698 424.848 732.603 423.7 733.564 423.972C732.395 423.642 731.528 421.488 729.813 421.084C728.379 420.745 728.033 421.727 726.327 420.918C723.073 419.374 720.52 414.555 718.241 411.734Z" fill="#3F3D56"/>
<path d="M794.698 305.717C793.765 305.41 792.847 305.048 791.949 304.631C789.533 303.829 786.337 305.793 786.659 308.56C786.873 310.398 788.42 311.637 789.274 313.231C790.541 315.596 790.203 318.595 789.538 321.243C789.374 322.063 789.063 322.838 788.623 323.522C788.009 324.245 787.274 324.829 786.459 325.244C783.196 327.267 780.319 329.97 777.986 333.204C777.732 333.502 777.556 333.871 777.474 334.27C777.359 335.204 778.208 335.885 778.688 336.664C779.754 338.394 778.984 340.723 779.089 342.814C779.073 343.109 779.125 343.405 779.241 343.672C779.357 343.939 779.533 344.169 779.752 344.339C780.394 344.7 781.156 344.087 781.504 343.389C782.66 341.073 781.79 337.356 783.958 336.239C784.368 336.028 784.866 335.939 785.139 335.54C785.574 334.908 785.155 333.972 785.375 333.216C785.705 332.082 787.108 332.031 788.185 332.081C790.04 332.167 791.895 331.894 793.665 331.275C794.359 331.092 794.99 330.688 795.479 330.113C796.127 329.218 796.069 327.946 795.94 326.809C795.291 321.138 793.667 315.657 791.154 310.661C793.059 310.931 795.132 311.164 796.776 310.066C797.696 309.451 798.8 307.613 798.344 306.361C797.622 304.382 796.317 306.048 794.698 305.717Z" fill="#3F3D56"/>
<path d="M550.471 336.906C550.699 338.258 550.923 339.682 550.522 340.984C550.122 342.286 548.861 343.374 547.671 342.975C546.747 342.665 546.213 341.638 545.557 340.855C541.909 336.5 533.679 339.022 531.425 333.634C530.506 331.435 531.131 328.801 530.503 326.479C530.108 325.138 529.32 323.98 528.265 323.187C527.209 322.394 525.945 322.011 524.672 322.099C523.51 322.284 522.379 322.657 521.316 323.206C514.19 326.362 506.71 328.431 499.081 329.356C497.631 329.454 496.197 329.742 494.809 330.215C491.676 331.471 489.535 334.683 488.012 337.96C486.489 341.237 485.364 344.785 483.322 347.697C481.175 350.757 478.168 352.9 475.362 355.217C474.281 355.988 473.381 357.031 472.736 358.261C472.128 359.641 472.162 361.248 472.21 362.783L472.783 381.426C472.857 383.824 472.949 386.308 473.92 388.454C475.132 391.134 477.526 392.889 479.187 395.256C480.882 397.689 481.765 400.695 481.687 403.764C481.652 404.999 481.541 406.458 482.41 407.234C482.939 407.613 483.557 407.81 484.188 407.799L506.994 409.863C511.006 410.226 515.452 410.823 518.071 414.203C519.307 415.798 520.3 418.092 522.194 418.263C523.006 418.337 523.796 417.968 524.609 417.897C526.658 417.717 528.458 419.437 529.595 421.332C531.314 424.22 532.095 427.668 531.808 431.111C531.622 433.272 531.016 435.373 530.885 437.54C530.388 445.782 536.707 452.943 536.83 461.203C536.902 466.061 534.816 470.601 532.783 474.908C536.065 480.406 533.377 487.727 534.684 494.154C535.923 500.252 540.521 505.026 541.667 511.146C542.191 513.947 542.222 517.395 544.456 518.838C545.436 519.367 546.523 519.607 547.612 519.537C554.179 519.623 560.671 517.989 566.558 514.767C569.32 513.251 572.184 510.988 572.666 507.62C573.055 504.903 571.809 501.865 573.077 499.499C574.571 496.71 578.399 496.931 580.598 494.787C584.164 491.309 581.383 484.675 582.828 479.665C584.127 475.162 588.599 472.769 590.815 468.727C591.687 466.989 592.313 465.113 592.671 463.165C593.686 458.509 594.318 453.761 594.559 448.978C594.618 446.073 594.812 443.173 595.14 440.289C597.529 423.872 612.207 412.879 616.972 397.108C617.427 395.601 617.641 393.595 616.429 392.743C615.71 392.364 614.895 392.269 614.121 392.476L603.608 393.942C602.302 394.124 600.918 394.294 599.719 393.694C598.52 393.094 597.66 391.417 598.296 390.142C600.082 386.566 596.409 382.046 594.777 378.381C590.382 368.511 585.149 359.126 579.147 350.352C578.763 349.901 578.523 349.323 578.462 348.707L581.446 348.817C580.439 344.82 578.777 340.447 575.265 338.985C573.287 338.161 571.096 338.446 568.985 338.573C562.938 338.939 556.455 337.929 550.471 336.906Z" fill="#3F3D56"/>
<path d="M568.989 246.843C570.572 248.701 572.345 250.671 574.634 250.995C578.678 251.567 581.585 246.943 583.436 242.927C583.504 243.951 583.932 244.905 584.626 245.586C585.321 246.267 586.229 246.621 587.156 246.574C588.154 246.388 589.107 245.976 589.954 245.364C597.966 240.523 606.939 237.958 616.069 237.899C615.981 237.134 616.153 236.361 616.551 235.728C616.948 235.095 617.544 234.647 618.223 234.471C620.079 234.064 621.751 235.838 622.646 237.682C623.542 239.525 624.1 241.662 625.523 243.042C626.946 244.422 629.7 244.362 630.262 242.363C630.801 240.445 628.994 238.809 627.493 237.678C625.991 236.547 624.408 234.454 625.42 232.785C633.09 230.907 640.809 229.022 648.658 228.649C649.995 228.701 651.326 228.447 652.57 227.904C653.767 227.255 654.718 225.78 654.397 224.349C652.684 224.794 650.89 224.665 649.243 223.979C647.597 223.292 646.173 222.079 645.152 220.493C656.044 219.5 667.628 218.652 677.281 224.32C678.439 227.069 672.535 229.357 674.115 231.837C674.619 232.628 675.628 232.721 676.503 232.739C683.21 232.876 689.957 233.011 696.588 231.891C699.012 231.482 701.46 230.905 703.893 231.236C707.946 231.789 711.412 234.779 715.4 235.754C717.022 236.151 718.842 236.165 720.21 235.121C721.578 234.077 722.166 231.7 721.045 230.344C724.799 226.275 731.03 227.283 735.982 229.231C740.935 231.179 745.627 234.32 750.869 234.754C754.627 235.066 758.439 233.948 762.153 234.658C764.487 235.105 766.659 236.253 768.94 236.959C773.255 238.293 777.819 238.011 782.298 238.075C793.728 238.246 805.033 240.73 815.653 245.404C817.035 245.902 818.3 246.729 819.361 247.827C820.349 248.997 820.853 250.815 820.189 252.238L809.215 250.465C810.249 252.716 812.924 253.099 815.096 253.876C817.268 254.652 819.521 257.305 818.215 259.376C815.861 258.547 813.729 261.15 812.54 263.544C811.351 265.938 809.902 268.806 807.435 268.952C805.226 269.082 802.555 267.002 801.115 268.859C803.104 271.634 804.807 274.645 806.193 277.837C807.616 281.114 808.629 285.243 806.706 288.191C806.404 288.718 805.945 289.111 805.409 289.304C803.839 289.743 802.818 287.619 801.692 286.332C800.274 284.71 798.128 284.25 796.206 283.489C794.285 282.729 792.261 281.232 792.11 278.981C792.017 277.581 792.685 276.279 793.178 274.985C794.006 272.803 794.368 270.44 794.236 268.079C794.128 266.179 793.646 264.203 792.412 262.875C791.179 261.548 789.049 261.127 787.724 262.343C787.106 262.91 786.611 263.817 785.808 263.851C784.39 263.911 783.301 261.177 782.16 262.111C782.294 263.105 782.108 264.12 781.634 264.977C778.229 268.252 772.999 266.867 768.61 268.023C766.522 268.684 764.524 269.649 762.668 270.893C761.973 271.221 761.382 271.77 760.969 272.469C760.421 273.646 761.025 275.154 761.991 275.937C763.015 276.632 764.166 277.066 765.36 277.209C770.711 278.329 776.14 280.064 780.365 283.865C784.589 287.665 787.36 293.948 786.023 299.786L775.471 288.636C775.871 293.318 776.099 298.012 776.153 302.719C776.221 303.638 776.107 304.563 775.818 305.428C775.066 307.265 773.027 307.884 771.241 308.289C770.744 308.394 770.272 308.613 769.858 308.933C769.443 309.254 769.094 309.667 768.834 310.147C768.574 310.627 768.409 311.162 768.349 311.717C768.289 312.273 768.337 312.836 768.488 313.37C769.123 315.658 770.705 317.441 772.155 319.219C773.604 320.996 775.03 323.016 775.22 325.4C775.41 327.785 773.783 330.472 771.624 330.306C769.987 330.18 768.773 328.56 768.075 326.918C767.377 325.276 766.961 323.447 765.912 322.052C762.737 317.83 755.606 319.639 752.762 315.138C752.037 316.047 751.534 317.146 751.301 318.331C751.069 319.516 751.114 320.746 751.432 321.907C752.755 320.991 754.566 321.842 755.561 323.173C756.555 324.503 757.024 326.21 757.804 327.705C758.858 329.722 760.535 331.51 760.682 333.834C760.643 334.712 760.656 335.593 760.722 336.47C760.983 337.877 762.059 338.888 762.805 340.065C764.541 342.804 764.456 346.565 763.337 349.672C762.218 352.779 760.207 355.375 758.216 357.892C754.738 362.289 751.189 366.659 747.065 370.31C745.888 371.352 744.633 372.376 743.9 373.833C743.167 375.289 743.13 377.334 744.256 378.442C743.45 378.486 742.005 378.925 741.199 378.969C740.916 375.395 740.854 371.803 741.015 368.22C737.835 366.532 734.412 371.053 734.822 374.927C735.232 378.801 737.766 381.91 739.57 385.261C740.889 387.712 741.87 390.57 741.429 393.381C740.989 396.191 738.72 398.784 736.151 398.536C732.063 398.142 730.354 391.653 726.306 390.91C725.949 390.818 725.574 390.859 725.241 391.027C724.64 391.392 724.536 392.281 724.502 393.038C724.336 396.753 724.193 400.616 725.504 404.041C727.423 409.052 732.38 413.261 731.34 418.579C725.739 415.7 722.827 408.755 721.504 402.083C720.182 395.411 719.962 388.407 717.592 382.1C715.792 384.65 712.009 382.542 710.365 379.866C708.806 377.329 707.846 374.394 706.333 371.823C704.821 369.252 702.504 366.949 699.733 366.808C696.828 366.66 694.308 368.864 692.092 370.947C690.27 372.66 688.4 374.44 687.335 376.808C685.785 380.253 686.19 384.315 686.116 388.163C686.035 392.322 685.238 396.71 682.674 399.755C680.111 402.8 675.379 403.86 672.551 401.116C671.075 399.684 670.36 397.543 669.724 395.488C666.655 385.584 664.099 375.495 662.069 365.269C661.594 367.603 659.74 370.611 657.97 369.236C657.572 368.867 657.25 368.408 657.025 367.891C653.723 361.701 647.607 357.988 641.427 355.762C635.247 353.536 628.746 352.498 622.635 350.051C619.21 348.68 615.939 346.878 612.886 344.682C612.108 345.946 611.653 347.42 611.571 348.946C611.488 350.473 611.781 351.996 612.418 353.354C613.773 356.008 616.841 357.544 619.467 356.616C620.823 356.137 621.969 355.095 623.316 354.581C624.662 354.066 626.469 354.319 627.058 355.753C627.622 357.126 626.77 358.787 627.192 360.221C627.836 362.404 630.814 362.572 631.855 364.559C632.63 366.037 631.992 368 630.886 369.193C629.78 370.386 628.304 371.04 626.954 371.871C622.572 374.565 619.456 379.164 615.627 382.743C611.798 386.321 606.395 388.934 601.831 386.638C602.919 380.547 596.358 376.075 595.151 370.012C594.753 368.016 594.959 365.896 594.392 363.951C593.571 361.135 591.312 359.199 589.458 357.065C587.21 354.449 585.459 351.361 584.307 347.984C583.156 344.607 582.628 341.009 582.755 337.403C582.855 334.897 583.271 332.35 582.755 329.907C582.239 327.465 580.41 325.101 578.144 325.211C572.968 325.464 566.447 325.89 563.731 321.011C562.762 319.269 562.34 316.719 563.742 315.385C564.73 314.444 566.189 314.532 567.487 314.674L579.15 315.942C581.877 316.239 584.826 316.484 587.167 314.907C589.507 313.33 590.522 309.144 588.354 307.289C586.771 305.934 583.933 306.007 583.473 303.852C583.09 302.057 584.886 300.021 583.916 298.521C583.22 297.445 581.656 297.743 580.708 298.55C579.76 299.356 579.072 300.535 578.011 301.146C576.151 302.217 573.927 301.197 571.925 300.505C569.923 299.812 567.239 299.753 566.268 301.809C565.181 304.109 567.231 307.122 566.153 309.427C564.728 312.474 559.902 310.739 557.901 313.36C555.604 316.367 559.463 320.851 558.689 324.693C557.7 325.234 556.601 325.483 555.5 325.415C554.398 325.346 553.331 324.963 552.403 324.302C551.491 323.616 550.764 322.669 550.299 321.562C549.835 320.455 549.65 319.23 549.765 318.016C549.957 316.288 550.772 314.524 550.226 312.891C549.784 311.571 548.585 310.785 547.471 310.104L536.138 303.178C535.086 305.337 536.416 308.013 538.08 309.634C539.743 311.255 541.827 312.476 542.92 314.61C543.611 316.088 543.766 317.802 543.353 319.402C542.94 321.003 541.99 322.368 540.697 323.22C540.535 323.344 540.351 323.427 540.157 323.465C539.963 323.502 539.764 323.493 539.574 323.437C539.393 323.319 539.236 323.163 539.11 322.977C538.985 322.791 538.895 322.579 538.846 322.353C536.846 316.695 533.844 311.116 529.044 308.16C524.244 305.204 517.347 305.812 514.2 310.791C513.452 311.974 512.95 313.322 512.299 314.572C508.839 321.216 501.421 324.362 494.491 324.156C493.813 324.198 493.138 324.022 492.548 323.651C491.428 322.796 491.478 320.981 491.65 319.488L492.377 313.15C492.523 311.878 492.735 310.471 493.646 309.677C494.93 308.557 496.782 309.264 498.417 309.238C499.655 309.174 500.846 308.69 501.828 307.852C502.81 307.014 503.535 305.863 503.905 304.554C504.235 303.233 504.233 301.836 503.899 300.516C503.565 299.195 502.911 298.001 502.008 297.061C501.258 296.283 500.253 295.305 500.648 294.256C500.806 293.965 501.02 293.717 501.274 293.528C501.528 293.339 501.817 293.213 502.119 293.161C505.056 292.217 508.159 291.97 511.047 290.857C513.935 289.745 516.736 287.468 517.42 284.172C517.63 283.162 517.725 281.938 518.545 281.437C518.957 281.245 519.399 281.145 519.846 281.143C521.412 280.897 522.838 280.011 523.842 278.661C524.847 277.311 525.358 275.593 525.275 273.847C526.66 272.777 528.599 273.564 529.938 274.701C531.277 275.839 532.459 277.342 534.088 277.832C537.124 278.746 540.058 275.773 543.205 275.759C544.528 275.754 545.898 276.271 547.143 275.775C548.405 275.272 549.159 273.883 550.127 272.856C551.096 271.83 552.795 271.204 553.69 272.31L552.928 266.072C554.462 266.5 556.061 266.561 557.618 266.249C559.174 265.938 560.653 265.262 561.954 264.267L552.111 260.589C551.768 260.495 551.452 260.308 551.19 260.045C550.475 259.193 551.185 257.865 551.767 256.896C553.159 254.579 553.393 250.762 551.104 249.609C549.541 248.821 547.748 249.766 546.248 250.691L539.064 255.121C538.835 256.631 540.505 257.487 541.54 258.504C542.166 259.119 542.609 259.93 542.811 260.829C543.013 261.728 542.964 262.673 542.672 263.541C542.379 264.409 541.855 265.158 541.17 265.691C540.485 266.224 539.67 266.515 538.832 266.527C539.305 267.207 539.634 267.996 539.794 268.836C539.954 269.675 539.941 270.544 539.756 271.377L534.922 271.762C534.38 271.883 533.816 271.761 533.355 271.423C532.838 270.916 532.908 270.026 532.788 269.273C532.499 267.455 530.889 266.182 529.247 265.855C527.604 265.528 525.924 265.947 524.297 266.36C523.607 266.635 522.848 266.616 522.17 266.306C521.781 266.027 521.485 265.614 521.328 265.131C520.615 263.219 521.282 260.972 522.427 259.337C523.572 257.702 525.14 256.507 526.548 255.146C529.915 251.879 532.389 247.636 533.69 242.896C536.351 241.663 539.106 239.988 541.767 238.755C545.87 236.458 550.47 235.473 555.052 235.909L564.063 236.099C566.731 236.156 569.472 236.228 571.939 237.353C574.406 238.478 576.574 240.91 576.744 243.855C576.795 244.189 576.769 244.531 576.668 244.85C576.567 245.169 576.394 245.455 576.166 245.68C575.818 245.89 575.423 245.989 575.027 245.964C572.539 246.061 571.478 246.746 568.989 246.843Z" fill="#3F3D56"/>
<path d="M497.16 278.074C497.512 277.705 497.766 277.237 497.893 276.719C498.02 276.202 498.015 275.656 497.879 275.141C497.023 274.776 496.091 274.682 495.188 274.87C494.286 275.059 493.449 275.522 492.772 276.208C492.238 276.805 491.778 277.477 491.404 278.208C490.219 280.344 489.172 282.896 489.858 285.284C489.914 285.545 490.017 285.79 490.16 286.006C490.302 286.222 490.483 286.405 490.69 286.543C490.998 286.679 491.329 286.737 491.66 286.711C492.965 286.709 494.268 286.62 495.563 286.445C496.358 286.337 497.281 286.089 497.589 285.271C497.993 284.196 497.015 282.979 497.3 281.858C497.488 281.356 497.772 280.906 498.133 280.539C498.312 280.354 498.45 280.125 498.535 279.871C498.62 279.617 498.651 279.345 498.624 279.075C498.509 278.549 497.781 278.251 497.518 278.708" fill="#3F3D56"/>
<path d="M503.925 268.376C502.766 268.082 501.571 267.999 500.388 268.13C500.127 268.122 499.867 268.187 499.635 268.32C499.409 268.504 499.246 268.765 499.17 269.063C498.921 269.95 498.982 270.909 499.342 271.748C499.703 272.587 500.336 273.245 501.115 273.591C501.54 273.699 501.947 273.88 502.322 274.127C503.322 274.985 502.684 276.739 502.874 278.123C503.086 279.677 504.447 280.982 504.197 282.53C504.001 283.749 502.823 284.714 503.013 285.935C503.211 287.213 504.678 287.597 505.848 287.7C506.525 287.831 507.223 287.743 507.856 287.445C508.491 286.965 508.942 286.242 509.123 285.416C509.602 283.84 509.803 282.178 509.716 280.518C509.711 279.763 509.54 279.021 509.217 278.356C508.865 277.83 508.474 277.335 508.05 276.879C505.809 273.997 508.168 269.698 503.925 268.376Z" fill="#3F3D56"/>
<path opacity="0.8" d="M798.532 494.121C798.532 494.121 626.94 385.204 553.068 405.841C553.068 405.841 396.51 424.472 378.366 465.459C378.366 465.459 328.599 293.484 310.455 287.752" stroke="#6C63FF" stroke-width="2" stroke-miterlimit="10"/>
<path opacity="0.8" d="M378.366 465.459C407.137 380.618 666.339 286.605 666.339 286.605C629.532 296.924 553.068 405.841 553.068 405.841C553.068 405.841 391.326 275.714 310.455 287.752C310.455 287.752 666.598 300.65 798.532 494.121" stroke="#6C63FF" stroke-width="2" stroke-miterlimit="10"/>
<path d="M310.455 296.064C314.606 296.064 317.972 292.343 317.972 287.752C317.972 283.161 314.606 279.44 310.455 279.44C306.303 279.44 302.938 283.161 302.938 287.752C302.938 292.343 306.303 296.064 310.455 296.064Z" fill="#6C63FF"/>
<path d="M378.366 473.771C382.517 473.771 385.883 470.05 385.883 465.459C385.883 460.868 382.517 457.147 378.366 457.147C374.214 457.147 370.849 460.868 370.849 465.459C370.849 470.05 374.214 473.771 378.366 473.771Z" fill="#6C63FF"/>
<path d="M666.339 294.918C670.49 294.918 673.856 291.196 673.856 286.605C673.856 282.015 670.49 278.293 666.339 278.293C662.188 278.293 658.822 282.015 658.822 286.605C658.822 291.196 662.188 294.918 666.339 294.918Z" fill="#6C63FF"/>
<path d="M798.532 502.433C802.683 502.433 806.049 498.712 806.049 494.121C806.049 489.531 802.683 485.809 798.532 485.809C794.381 485.809 791.015 489.531 791.015 494.121C791.015 498.712 794.381 502.433 798.532 502.433Z" fill="#6C63FF"/>
<path d="M553.068 414.153C557.219 414.153 560.585 410.432 560.585 405.841C560.585 401.25 557.219 397.529 553.068 397.529C548.916 397.529 545.551 401.25 545.551 405.841C545.551 410.432 548.916 414.153 553.068 414.153Z" fill="#6C63FF"/>
</g>
</g>
<defs>
<clipPath id="clip0_0_1">
<rect width="980.494" height="751.895" fill="white"/>
</clipPath>
<clipPath id="clip1_0_1">
<rect width="739" height="607" fill="white" transform="translate(176 72)"/>
</clipPath>
</defs>
</svg>
